<svg width="15" height="14" viewBox="0 0 15 14" fill="none" xmlns="http://www.w3.org/2000/svg">
<path d="M14.4852 6.36117L1.73522 0.36117C1.60683 0.300758 1.46394 0.278005 1.32314 0.295553C1.18233 0.313102 1.0494 0.370232 0.939766 0.460309C0.830134 0.550386 0.748304 0.669715 0.703777 0.804438C0.659251 0.939162 0.653854 1.08375 0.688216 1.22142L1.59722 4.85817L7.41572 7.03992L1.59722 9.22167L0.688216 12.8584C0.653208 12.9962 0.658154 13.1411 0.702474 13.2761C0.746795 13.4112 0.828658 13.5308 0.938488 13.6211C1.04832 13.7113 1.18157 13.7684 1.32267 13.7857C1.46376 13.803 1.60685 13.7797 1.73522 13.7187L14.4852 7.71867C14.6141 7.6581 14.723 7.56211 14.7993 7.44192C14.8756 7.32172 14.9162 7.18229 14.9162 7.03992C14.9162 6.89755 14.8756 6.75812 14.7993 6.63792C14.723 6.51773 14.6141 6.42174 14.4852 6.36117Z" fill="#4691F2"/>
</svg>
